M48
;Layer_Color=9474304
;FILE_FORMAT=2:5
INCH,LZ
;TYPE=PLATED
T1F00S00C0.02756
T2F00S00C0.03000
T3F00S00C0.03346
T4F00S00C0.03543
T5F00S00C0.04900
T6F00S00C0.05118
T7F00S00C0.05906
T8F00S00C0.06000
T9F00S00C0.07126
T10F00S00C0.11811
%
T01
X01755Y00285
Y00385
Y00485
X0053
Y00785
X00435Y0197
X00735
T02
X0043Y014
X0131976
X0172587Y01405
X0194043
X02155
Y02035
X0194043Y02045
X0172587Y02055
X0172543Y0263
X0194Y0264
T03
X01685Y00775
X0196Y00785
X02225Y00765
Y01065
X0196Y01085
X01685Y01075
X0076Y0114
X0046
T04
X01235Y0197
X01285
X01335
X02775Y02575
Y02625
Y02675
T05
X02865Y018
Y02001
T06
X02965Y0042657
Y0062343
X0083343Y0268
X0063657
T07
X0043Y014
X0131976
X0215457Y0264
T08
X0053Y00485
Y00785
T09
X0172587Y01405
X0194043
X02155
Y02045
X0194043
X0172587
X0172543Y0264
T10
X0349Y0011
X001Y0012
X03475Y0297
X00125
M30
