G04 Layer_Color=0*
%FSLAX25Y25*%
%MOIN*%
G70*
G01*
G75*
%ADD32C,0.00600*%
%ADD53C,0.00100*%
%ADD55C,0.00197*%
D32*
X295550Y209750D02*
G03*
X277450Y209750I-9050J0D01*
G01*
Y170350D02*
G03*
X295550Y170350I9050J0D01*
G01*
X276450Y210750D02*
X296550D01*
Y169350D02*
Y210750D01*
X276450Y169350D02*
X296550D01*
X276450D02*
Y210750D01*
X295550Y170350D02*
Y209750D01*
X277450Y170350D02*
Y209750D01*
X286500Y210750D02*
Y215750D01*
X284000Y213250D02*
X289000D01*
D53*
X270950Y200100D02*
X286500D01*
X270950Y180000D02*
X286500D01*
X272450D02*
Y200100D01*
X272950Y199100D01*
X271950D02*
X272450Y200100D01*
X271950Y199100D02*
X272950D01*
X272450Y180000D02*
X272950Y181000D01*
X271950D02*
X272450Y180000D01*
X271950Y181000D02*
X272950D01*
X286500Y209750D02*
X302050D01*
X286500Y170350D02*
X302050D01*
X300550D02*
Y209750D01*
X301050Y208750D01*
X300050D02*
X300550Y209750D01*
X300050Y208750D02*
X301050D01*
X300550Y170350D02*
X301050Y171350D01*
X300050D02*
X300550Y170350D01*
X300050Y171350D02*
X301050D01*
X295550Y174500D02*
Y190050D01*
X277450Y174500D02*
Y190050D01*
Y176000D02*
X295550D01*
X294550Y176500D02*
X295550Y176000D01*
X294550Y175500D02*
X295550Y176000D01*
X294550Y175500D02*
Y176500D01*
X277450Y176000D02*
X278450Y176500D01*
X277450Y176000D02*
X278450Y175500D01*
Y176500D01*
D55*
X279768Y31831D02*
Y73169D01*
X314413D01*
Y31831D02*
Y73169D01*
X279768Y31831D02*
X314413D01*
X52831Y284732D02*
X94169D01*
Y250087D02*
Y284732D01*
X52831Y250087D02*
X94169D01*
X52831D02*
Y284732D01*
M02*
