G04 Layer_Color=65535*
%FSLAX25Y25*%
%MOIN*%
G70*
G01*
G75*
%ADD29C,0.00984*%
%ADD30C,0.00787*%
%ADD31C,0.01102*%
%ADD32C,0.00600*%
%ADD33C,0.00500*%
%ADD34C,0.01000*%
%ADD35C,0.00591*%
%ADD36C,0.00781*%
D29*
X272677Y273642D02*
G03*
X272677Y273642I-492J0D01*
G01*
X117850Y191685D02*
G03*
X117850Y191685I-492J0D01*
G01*
D30*
X271595Y254705D02*
G03*
X271595Y270295I5906J7795D01*
G01*
X136295Y191095D02*
G03*
X120705Y191095I-7795J5906D01*
G01*
X83000Y63500D02*
G03*
X83000Y63500I-30000J0D01*
G01*
X88500Y197000D02*
G03*
X88500Y197000I-30000J0D01*
G01*
X271594Y254705D02*
Y270295D01*
X225004Y255535D02*
Y275811D01*
X162996D02*
X225004D01*
X162996Y264000D02*
Y275811D01*
X163039Y192689D02*
Y212965D01*
Y192689D02*
X225047D01*
Y204500D01*
X219500Y101500D02*
X222500D01*
X219500Y81500D02*
Y101500D01*
Y81500D02*
X225500D01*
Y101500D01*
X222500D02*
X225500D01*
X222500Y80600D02*
Y81500D01*
Y101500D02*
Y102400D01*
X168500Y82500D02*
X171500D01*
Y102500D01*
X165500D02*
X171500D01*
X165500Y82500D02*
Y102500D01*
Y82500D02*
X168500D01*
Y102500D02*
Y103400D01*
Y81600D02*
Y82500D01*
X225047Y132035D02*
Y152311D01*
X163039D02*
X225047D01*
X163039Y140500D02*
Y152311D01*
X196000Y83500D02*
X199000D01*
Y103500D01*
X193000D02*
X199000D01*
X193000Y83500D02*
Y103500D01*
Y83500D02*
X196000D01*
Y103500D02*
Y104400D01*
Y82600D02*
Y83500D01*
X120705Y191094D02*
X136295D01*
X70488Y133130D02*
X104488D01*
X70488D02*
Y146870D01*
X104488D01*
Y133130D02*
Y146870D01*
X97614Y133130D02*
X104488Y140000D01*
X126760D01*
X48217D02*
X70488D01*
X71000Y114000D02*
Y117000D01*
X51000D02*
X71000D01*
X51000Y111000D02*
Y117000D01*
Y111000D02*
X71000D01*
Y114000D01*
X50100D02*
X51000D01*
X71000D02*
X71900D01*
X165500Y18500D02*
X185500D01*
Y63500D01*
X175500D02*
X185500D01*
X175500Y58500D02*
Y63500D01*
X165500Y58500D02*
X175500D01*
X165500Y18500D02*
Y58500D01*
D31*
X291146Y37539D02*
G03*
X291146Y37539I-551J0D01*
G01*
X59091Y273905D02*
G03*
X59091Y273905I-551J0D01*
G01*
D32*
X286500Y210750D02*
Y215750D01*
X284000Y213250D02*
X289000D01*
X296050Y169850D02*
Y210250D01*
X276950Y169850D02*
Y210250D01*
Y169850D02*
X296050D01*
X276950Y210250D02*
X296050D01*
D33*
X280752Y32815D02*
Y72185D01*
X313429D01*
Y32815D02*
Y72185D01*
X280752Y32815D02*
X313429D01*
X53815Y283748D02*
X93185D01*
Y251071D02*
Y283748D01*
X53815Y251071D02*
X93185D01*
X53815D02*
Y283748D01*
D34*
X276199Y278600D02*
Y282598D01*
X275199Y283598D01*
X273200D01*
X272200Y282598D01*
Y278600D01*
X273200Y277600D01*
X275199D01*
X274199Y279599D02*
X276199Y277600D01*
X275199D02*
X276199Y278600D01*
X282197Y283598D02*
X278198D01*
Y280599D01*
X280197Y281599D01*
X281197D01*
X282197Y280599D01*
Y278600D01*
X281197Y277600D01*
X279198D01*
X278198Y278600D01*
X39076Y157298D02*
X43075D01*
Y156298D01*
X39076Y152300D01*
Y151300D01*
X43075D01*
X45074D02*
X47074D01*
X46074D01*
Y157298D01*
X45074Y156298D01*
X152000Y37500D02*
Y43498D01*
X154999D01*
X155999Y42498D01*
Y40499D01*
X154999Y39499D01*
X152000D01*
X153999D02*
X155999Y37500D01*
X157998Y43498D02*
Y39499D01*
X159997Y37500D01*
X161997Y39499D01*
Y43498D01*
X304000Y203500D02*
Y209498D01*
X306999D01*
X307999Y208498D01*
Y206499D01*
X306999Y205499D01*
X304000D01*
X305999D02*
X307999Y203500D01*
X313997Y209498D02*
X309998D01*
Y206499D01*
X311997Y207499D01*
X312997D01*
X313997Y206499D01*
Y204500D01*
X312997Y203500D01*
X310998D01*
X309998Y204500D01*
X43800Y120400D02*
Y126398D01*
X46799D01*
X47799Y125398D01*
Y123399D01*
X46799Y122399D01*
X43800D01*
X45799D02*
X47799Y120400D01*
X52797D02*
Y126398D01*
X49798Y123399D01*
X53797D01*
X220150Y112650D02*
Y118648D01*
X223149D01*
X224149Y117648D01*
Y115649D01*
X223149Y114649D01*
X220150D01*
X222149D02*
X224149Y112650D01*
X226148Y117648D02*
X227148Y118648D01*
X229147D01*
X230147Y117648D01*
Y116649D01*
X229147Y115649D01*
X228147D01*
X229147D01*
X230147Y114649D01*
Y113650D01*
X229147Y112650D01*
X227148D01*
X226148Y113650D01*
X193600Y114700D02*
Y120698D01*
X196599D01*
X197599Y119698D01*
Y117699D01*
X196599Y116699D01*
X193600D01*
X195599D02*
X197599Y114700D01*
X203597D02*
X199598D01*
X203597Y118699D01*
Y119698D01*
X202597Y120698D01*
X200598D01*
X199598Y119698D01*
X166100Y113700D02*
Y119698D01*
X169099D01*
X170099Y118698D01*
Y116699D01*
X169099Y115699D01*
X166100D01*
X168099D02*
X170099Y113700D01*
X172098D02*
X174097D01*
X173098D01*
Y119698D01*
X172098Y118698D01*
X166899Y280900D02*
Y284898D01*
X165899Y285898D01*
X163900D01*
X162900Y284898D01*
Y280900D01*
X163900Y279900D01*
X165899D01*
X164899Y281899D02*
X166899Y279900D01*
X165899D02*
X166899Y280900D01*
X171897Y279900D02*
Y285898D01*
X168898Y282899D01*
X172897D01*
X166985Y218000D02*
Y221998D01*
X165986Y222998D01*
X163986D01*
X162987Y221998D01*
Y218000D01*
X163986Y217000D01*
X165986D01*
X164986Y218999D02*
X166985Y217000D01*
X165986D02*
X166985Y218000D01*
X168985Y221998D02*
X169984Y222998D01*
X171984D01*
X172983Y221998D01*
Y220999D01*
X171984Y219999D01*
X170984D01*
X171984D01*
X172983Y218999D01*
Y218000D01*
X171984Y217000D01*
X169984D01*
X168985Y218000D01*
X166942Y157400D02*
Y161398D01*
X165942Y162398D01*
X163943D01*
X162943Y161398D01*
Y157400D01*
X163943Y156400D01*
X165942D01*
X164943Y158399D02*
X166942Y156400D01*
X165942D02*
X166942Y157400D01*
X172940Y156400D02*
X168941D01*
X172940Y160399D01*
Y161398D01*
X171940Y162398D01*
X169941D01*
X168941Y161398D01*
X121399Y211200D02*
Y215198D01*
X120399Y216198D01*
X118400D01*
X117400Y215198D01*
Y211200D01*
X118400Y210200D01*
X120399D01*
X119399Y212199D02*
X121399Y210200D01*
X120399D02*
X121399Y211200D01*
X123398Y210200D02*
X125397D01*
X124398D01*
Y216198D01*
X123398Y215198D01*
X274299Y82298D02*
X272299D01*
X273299D01*
Y77300D01*
X272299Y76300D01*
X271300D01*
X270300Y77300D01*
X279297Y76300D02*
Y82298D01*
X276298Y79299D01*
X280297D01*
X43999Y292998D02*
X41999D01*
X42999D01*
Y288000D01*
X41999Y287000D01*
X41000D01*
X40000Y288000D01*
X45998Y291998D02*
X46998Y292998D01*
X48997D01*
X49997Y291998D01*
Y290999D01*
X48997Y289999D01*
X47997D01*
X48997D01*
X49997Y288999D01*
Y288000D01*
X48997Y287000D01*
X46998D01*
X45998Y288000D01*
X27599Y101898D02*
X26599Y102898D01*
X24600D01*
X23600Y101898D01*
Y97900D01*
X24600Y96900D01*
X26599D01*
X27599Y97900D01*
X33597Y96900D02*
X29598D01*
X33597Y100899D01*
Y101898D01*
X32597Y102898D01*
X30598D01*
X29598Y101898D01*
X33149Y235348D02*
X32149Y236348D01*
X30150D01*
X29150Y235348D01*
Y231350D01*
X30150Y230350D01*
X32149D01*
X33149Y231350D01*
X35148Y230350D02*
X37147D01*
X36148D01*
Y236348D01*
X35148Y235348D01*
X301000Y198998D02*
X302000Y199998D01*
X303999D01*
X304999Y198998D01*
Y195000D01*
X303999Y194000D01*
X302000D01*
X301000Y195000D01*
Y198998D01*
X306998Y194000D02*
Y195000D01*
X307998D01*
Y194000D01*
X306998D01*
X315995Y199998D02*
X311996D01*
Y196999D01*
X313996Y197999D01*
X314996D01*
X315995Y196999D01*
Y195000D01*
X314996Y194000D01*
X312996D01*
X311996Y195000D01*
X317994Y194000D02*
Y199998D01*
X320993D01*
X321993Y198998D01*
Y196999D01*
X320993Y195999D01*
X317994D01*
X319994D02*
X321993Y194000D01*
X333989D02*
X329991D01*
X333989Y197999D01*
Y198998D01*
X332990Y199998D01*
X330990D01*
X329991Y198998D01*
X335989D02*
X336988Y199998D01*
X338988D01*
X339987Y198998D01*
Y195000D01*
X338988Y194000D01*
X336988D01*
X335989Y195000D01*
Y198998D01*
X341987Y199998D02*
Y194000D01*
X343986Y195999D01*
X345985Y194000D01*
Y199998D01*
X161500Y89000D02*
Y90999D01*
Y90000D01*
X155502D01*
X156502Y89000D01*
X155502Y93998D02*
X161500D01*
X159501D01*
X155502Y97997D01*
X158501Y94998D01*
X161500Y97997D01*
X184502Y89000D02*
Y92999D01*
X185502D01*
X189500Y89000D01*
X190500D01*
X184502Y94998D02*
X190500D01*
X188501Y96997D01*
X190500Y98997D01*
X184502D01*
X234500Y91000D02*
Y92999D01*
Y92000D01*
X228502D01*
X229502Y91000D01*
X228502Y95998D02*
X234500D01*
X232501D01*
X228502Y99997D01*
X231501Y96998D01*
X234500Y99997D01*
X13502Y49499D02*
X14502Y47499D01*
X16501Y45500D01*
X18500D01*
X19500Y46500D01*
Y48499D01*
X18500Y49499D01*
X17501D01*
X16501Y48499D01*
Y45500D01*
X14502Y51498D02*
X13502Y52498D01*
Y54497D01*
X14502Y55497D01*
X15501D01*
X16501Y54497D01*
X17501Y55497D01*
X18500D01*
X19500Y54497D01*
Y52498D01*
X18500Y51498D01*
X17501D01*
X16501Y52498D01*
X15501Y51498D01*
X14502D01*
X16501Y52498D02*
Y54497D01*
X14502Y57496D02*
X13502Y58496D01*
Y60495D01*
X14502Y61495D01*
X18500D01*
X19500Y60495D01*
Y58496D01*
X18500Y57496D01*
X14502D01*
Y63494D02*
X13502Y64494D01*
Y66493D01*
X14502Y67493D01*
X18500D01*
X19500Y66493D01*
Y64494D01*
X18500Y63494D01*
X14502D01*
X15501Y69492D02*
X18500D01*
X19500Y70492D01*
Y73491D01*
X15501D01*
X13502Y79489D02*
Y75490D01*
X16501D01*
Y77490D01*
Y75490D01*
X19500D01*
X21000Y183500D02*
Y185499D01*
Y184500D01*
X15002D01*
X16002Y183500D01*
X21000Y188498D02*
X17001D01*
Y189498D01*
X18001Y190498D01*
X21000D01*
X18001D01*
X17001Y191497D01*
X18001Y192497D01*
X21000D01*
X15002Y198495D02*
Y194496D01*
X18001D01*
Y196496D01*
Y194496D01*
X21000D01*
D35*
X53051Y31485D02*
Y27549D01*
X55019Y29517D02*
X51083D01*
X90515Y197051D02*
X94451D01*
X92483Y199019D02*
Y195083D01*
D36*
X59500Y294380D02*
Y287000D01*
X61046Y294380D02*
Y287000D01*
Y294380D02*
X65967Y287000D01*
Y294380D02*
Y287000D01*
X68005Y290514D02*
X71168D01*
X72222Y290866D01*
X72574Y291217D01*
X72925Y291920D01*
Y292974D01*
X72574Y293677D01*
X72222Y294029D01*
X71168Y294380D01*
X68005D01*
Y287000D01*
X74577Y294380D02*
Y289109D01*
X74928Y288054D01*
X75631Y287351D01*
X76686Y287000D01*
X77389D01*
X78443Y287351D01*
X79146Y288054D01*
X79497Y289109D01*
Y294380D01*
X83996D02*
Y287000D01*
X81536Y294380D02*
X86456D01*
X53500Y244623D02*
X55257Y245677D01*
X56663Y244623D01*
X58069Y245326D01*
X58912Y244974D02*
X59615Y245326D01*
X60669Y246380D01*
Y239000D01*
X66082Y246380D02*
X65027Y246029D01*
X64676Y245326D01*
Y244623D01*
X65027Y243920D01*
X65730Y243569D01*
X67136Y243217D01*
X68190Y242866D01*
X68893Y242163D01*
X69245Y241460D01*
Y240406D01*
X68893Y239703D01*
X68542Y239351D01*
X67488Y239000D01*
X66082D01*
X65027Y239351D01*
X64676Y239703D01*
X64324Y240406D01*
Y241460D01*
X64676Y242163D01*
X65379Y242866D01*
X66433Y243217D01*
X67839Y243569D01*
X68542Y243920D01*
X68893Y244623D01*
Y245326D01*
X68542Y246029D01*
X67488Y246380D01*
X66082D01*
X70897D02*
X73708Y239000D01*
X76520Y246380D02*
X73708Y239000D01*
X83267Y246380D02*
Y239000D01*
Y246380D02*
X85727D01*
X86782Y246029D01*
X87485Y245326D01*
X87836Y244623D01*
X88187Y243569D01*
Y241811D01*
X87836Y240757D01*
X87485Y240054D01*
X86782Y239351D01*
X85727Y239000D01*
X83267D01*
X95111Y244623D02*
X94760Y245326D01*
X94057Y246029D01*
X93354Y246380D01*
X91948D01*
X91245Y246029D01*
X90542Y245326D01*
X90191Y244623D01*
X89839Y243569D01*
Y241811D01*
X90191Y240757D01*
X90542Y240054D01*
X91245Y239351D01*
X91948Y239000D01*
X93354D01*
X94057Y239351D01*
X94760Y240054D01*
X95111Y240757D01*
X316573Y32449D02*
X316221Y33152D01*
X315167Y34207D01*
X322547D01*
X315167Y39970D02*
X315518Y38916D01*
X316573Y38213D01*
X318330Y37862D01*
X319384D01*
X321142Y38213D01*
X322196Y38916D01*
X322547Y39970D01*
Y40673D01*
X322196Y41728D01*
X321142Y42430D01*
X319384Y42782D01*
X318330D01*
X316573Y42430D01*
X315518Y41728D01*
X315167Y40673D01*
Y39970D01*
Y44434D02*
X322547Y47245D01*
X315167Y50057D02*
X322547Y47245D01*
X323602Y51006D02*
X315167Y55926D01*
X316573Y56418D02*
X316221Y57121D01*
X315167Y58175D01*
X322547D01*
X315167Y63939D02*
X315518Y62884D01*
X316573Y62182D01*
X318330Y61830D01*
X319384D01*
X321142Y62182D01*
X322196Y62884D01*
X322547Y63939D01*
Y64642D01*
X322196Y65696D01*
X321142Y66399D01*
X319384Y66750D01*
X318330D01*
X316573Y66399D01*
X315518Y65696D01*
X315167Y64642D01*
Y63939D01*
Y70511D02*
X315518Y69456D01*
X316573Y68754D01*
X318330Y68402D01*
X319384D01*
X321142Y68754D01*
X322196Y69456D01*
X322547Y70511D01*
Y71214D01*
X322196Y72268D01*
X321142Y72971D01*
X319384Y73322D01*
X318330D01*
X316573Y72971D01*
X315518Y72268D01*
X315167Y71214D01*
Y70511D01*
Y74974D02*
X322547Y76731D01*
X315167Y78489D02*
X322547Y76731D01*
X315167Y78489D02*
X322547Y80246D01*
X315167Y82003D02*
X322547Y80246D01*
X270076Y34581D02*
X270428Y33878D01*
X271130Y33175D01*
X271833Y32824D01*
X272888Y32472D01*
X274645D01*
X275699Y32824D01*
X276402Y33175D01*
X277105Y33878D01*
X277456Y34581D01*
Y35987D01*
X277105Y36690D01*
X276402Y37393D01*
X275699Y37744D01*
X274645Y38095D01*
X272888D01*
X271833Y37744D01*
X271130Y37393D01*
X270428Y36690D01*
X270076Y35987D01*
Y34581D01*
X272536Y39817D02*
X276051D01*
X277105Y40169D01*
X277456Y40872D01*
Y41926D01*
X277105Y42629D01*
X276051Y43683D01*
X272536D02*
X277456D01*
X270076Y46670D02*
X276051D01*
X277105Y47022D01*
X277456Y47725D01*
Y48428D01*
X272536Y45616D02*
Y48076D01*
Y49482D02*
X279917D01*
X273591D02*
X272888Y50185D01*
X272536Y50888D01*
Y51942D01*
X272888Y52645D01*
X273591Y53348D01*
X274645Y53699D01*
X275348D01*
X276402Y53348D01*
X277105Y52645D01*
X277456Y51942D01*
Y50888D01*
X277105Y50185D01*
X276402Y49482D01*
X272536Y55281D02*
X276051D01*
X277105Y55632D01*
X277456Y56335D01*
Y57390D01*
X277105Y58092D01*
X276051Y59147D01*
X272536D02*
X277456D01*
X270076Y62134D02*
X276051D01*
X277105Y62485D01*
X277456Y63188D01*
Y63891D01*
X272536Y61080D02*
Y63540D01*
M02*
