G04 Layer_Physical_Order=1*
G04 Layer_Color=255*
%FSLAX25Y25*%
%MOIN*%
G70*
G01*
G75*
%ADD10C,0.04000*%
%ADD11O,0.07874X0.03937*%
%ADD12O,0.07874X0.03937*%
%ADD13R,0.06900X0.06900*%
%ADD14C,0.06900*%
%ADD15R,0.10689X0.10689*%
%ADD16C,0.10689*%
%ADD17C,0.05512*%
%ADD18R,0.07677X0.07677*%
%ADD19C,0.07677*%
%ADD20O,0.03937X0.07874*%
%ADD21O,0.03937X0.07874*%
%ADD22R,0.04724X0.04724*%
%ADD23C,0.04724*%
%ADD24R,0.07677X0.07677*%
%ADD25R,0.04724X0.04724*%
%ADD26C,0.06000*%
%ADD27C,0.10000*%
%ADD28R,0.10000X0.10000*%
D10*
X43500Y169000D02*
Y197000D01*
X43000Y140000D02*
X43500Y169000D01*
X53000Y78500D02*
Y107000D01*
X46000Y114000D02*
X53000Y107000D01*
X43000Y117000D02*
Y140000D01*
Y117000D02*
X46000Y114000D01*
X76000D02*
X110000D01*
X175500Y48500D01*
X286500Y170500D02*
Y180000D01*
X222500Y106500D02*
X286500Y170500D01*
X210600Y64600D02*
X222500Y76500D01*
X210600Y63600D02*
Y64600D01*
X175500Y28500D02*
X210600Y63600D01*
X270516Y267500D02*
X277500D01*
X268016Y265000D02*
X270516Y267500D01*
X268016Y198484D02*
Y265000D01*
Y198484D02*
X286500Y180000D01*
Y200100D02*
Y260000D01*
X284000Y262500D02*
X286500Y260000D01*
X277500Y262500D02*
X284000D01*
X194043Y172400D02*
Y204500D01*
X194043Y172400D02*
X194043Y172400D01*
X194043Y140500D02*
Y172400D01*
X194000Y234243D02*
Y264000D01*
Y234243D02*
X194043Y234200D01*
Y204500D02*
Y234200D01*
X175500Y38500D02*
Y48500D01*
X172543Y234243D02*
X172587Y234200D01*
X208500Y91000D02*
Y126043D01*
X196000Y78500D02*
X208500Y91000D01*
X194043Y140500D02*
X208500Y126043D01*
X128500Y197000D02*
Y211000D01*
X121500Y218000D02*
X128500Y211000D01*
X106000Y218000D02*
X121500D01*
X98000Y210000D02*
X106000Y218000D01*
X98000Y136000D02*
Y210000D01*
X76000Y114000D02*
X98000Y136000D01*
X111000Y184500D02*
X123500Y197000D01*
X111000Y159500D02*
Y184500D01*
X130500Y140000D02*
X131976D01*
X111000Y159500D02*
X130500Y140000D01*
X133500Y197000D02*
X172587Y157913D01*
Y140500D02*
Y157913D01*
Y204500D02*
Y205500D01*
Y234200D01*
X215500Y140500D02*
Y203500D01*
Y204500D01*
X172543Y234243D02*
Y263000D01*
Y264000D01*
D11*
X277500Y257500D02*
D03*
Y267500D02*
D03*
D12*
Y262500D02*
D03*
D13*
X286500Y200100D02*
D03*
D14*
Y180000D02*
D03*
D15*
X172543Y264000D02*
D03*
X215500Y204500D02*
D03*
X172587Y140500D02*
D03*
D16*
X194000Y264000D02*
D03*
X215457D02*
D03*
X194043Y204500D02*
D03*
X172587D02*
D03*
X194043Y140500D02*
D03*
X215500D02*
D03*
D17*
X222500Y106500D02*
D03*
Y76500D02*
D03*
X168500Y77500D02*
D03*
Y107500D02*
D03*
X196000Y78500D02*
D03*
Y108500D02*
D03*
X76000Y114000D02*
D03*
X46000D02*
D03*
D18*
X296500Y42657D02*
D03*
D19*
Y62343D02*
D03*
X43000Y140000D02*
D03*
X83343Y268000D02*
D03*
D20*
X133500Y197000D02*
D03*
X123500D02*
D03*
D21*
X128500D02*
D03*
D22*
X53000Y48500D02*
D03*
X175500Y28500D02*
D03*
D23*
X53000Y78500D02*
D03*
X43500Y197000D02*
D03*
X175500Y38500D02*
D03*
Y48500D02*
D03*
D24*
X131976Y140000D02*
D03*
X63657Y268000D02*
D03*
D25*
X73500Y197000D02*
D03*
D26*
X12500Y297000D02*
D03*
X347500D02*
D03*
X349000Y11000D02*
D03*
X10000Y12000D02*
D03*
X172587Y205500D02*
D03*
X194043Y204500D02*
D03*
X215500Y203500D02*
D03*
Y140500D02*
D03*
X194043D02*
D03*
X172587D02*
D03*
X215457Y264000D02*
D03*
X194000D02*
D03*
X172543Y263000D02*
D03*
X131976Y140000D02*
D03*
X43000D02*
D03*
D27*
X53000Y78500D02*
D03*
D28*
Y48500D02*
D03*
M02*
