G04 Layer_Color=255*
%FSLAX25Y25*%
%MOIN*%
G70*
G01*
G75*
%ADD11O,0.07874X0.03937*%
%ADD12O,0.07874X0.03937*%
%ADD13R,0.06900X0.06900*%
%ADD14C,0.06900*%
%ADD15R,0.10689X0.10689*%
%ADD16C,0.10689*%
%ADD17C,0.05512*%
%ADD18R,0.07677X0.07677*%
%ADD19C,0.07677*%
%ADD20O,0.03937X0.07874*%
%ADD21O,0.03937X0.07874*%
%ADD22R,0.04724X0.04724*%
%ADD23C,0.04724*%
%ADD24R,0.07677X0.07677*%
%ADD25R,0.04724X0.04724*%
%ADD26C,0.06000*%
%ADD27C,0.10000*%
%ADD28R,0.10000X0.10000*%
D11*
X277500Y257500D02*
D03*
Y267500D02*
D03*
D12*
Y262500D02*
D03*
D13*
X286500Y200100D02*
D03*
D14*
Y180000D02*
D03*
D15*
X172543Y264000D02*
D03*
X215500Y204500D02*
D03*
X172587Y140500D02*
D03*
D16*
X194000Y264000D02*
D03*
X215457D02*
D03*
X194043Y204500D02*
D03*
X172587D02*
D03*
X194043Y140500D02*
D03*
X215500D02*
D03*
D17*
X222500Y106500D02*
D03*
Y76500D02*
D03*
X168500Y77500D02*
D03*
Y107500D02*
D03*
X196000Y78500D02*
D03*
Y108500D02*
D03*
X76000Y114000D02*
D03*
X46000D02*
D03*
D18*
X296500Y42657D02*
D03*
D19*
Y62343D02*
D03*
X43000Y140000D02*
D03*
X83343Y268000D02*
D03*
D20*
X133500Y197000D02*
D03*
X123500D02*
D03*
D21*
X128500D02*
D03*
D22*
X53000Y48500D02*
D03*
X175500Y28500D02*
D03*
D23*
X53000Y78500D02*
D03*
X43500Y197000D02*
D03*
X175500Y38500D02*
D03*
Y48500D02*
D03*
D24*
X131976Y140000D02*
D03*
X63657Y268000D02*
D03*
D25*
X73500Y197000D02*
D03*
D26*
X12500Y297000D02*
D03*
X347500D02*
D03*
X349000Y11000D02*
D03*
X10000Y12000D02*
D03*
X172587Y205500D02*
D03*
X194043Y204500D02*
D03*
X215500Y203500D02*
D03*
Y140500D02*
D03*
X194043D02*
D03*
X172587D02*
D03*
X215457Y264000D02*
D03*
X194000D02*
D03*
X172543Y263000D02*
D03*
X131976Y140000D02*
D03*
X43000D02*
D03*
D27*
X53000Y78500D02*
D03*
D28*
Y48500D02*
D03*
M02*
