G04 Layer_Color=65535*
%FSLAX25Y25*%
%MOIN*%
G70*
G01*
G75*
%ADD24C,0.01102*%
%ADD25C,0.00500*%
%ADD26C,0.00787*%
%ADD27C,0.01000*%
%ADD28C,0.00591*%
%ADD29R,0.11024X0.03150*%
D24*
X270646Y16539D02*
G03*
X270646Y16539I-551J0D01*
G01*
X222248Y357906D02*
G03*
X222248Y357906I-551J0D01*
G01*
X272248Y358906D02*
G03*
X272248Y358906I-551J0D01*
G01*
D25*
X242709Y36654D02*
G03*
X231291Y36654I-5709J0D01*
G01*
X260252Y11815D02*
X292929D01*
Y51185D01*
X260252D02*
X292929D01*
X260252Y11815D02*
Y51185D01*
X242709Y32323D02*
Y36654D01*
X231291Y32323D02*
Y36654D01*
X245661Y7126D02*
Y32323D01*
X228339D02*
X245661D01*
X228339Y7126D02*
Y32323D01*
Y7126D02*
X245661D01*
X216972Y335071D02*
Y367748D01*
Y335071D02*
X256343D01*
Y367748D01*
X216972D02*
X256343D01*
X266972Y336071D02*
Y368748D01*
Y336071D02*
X306343D01*
Y368748D01*
X266972D02*
X306343D01*
D26*
X292000Y106000D02*
G03*
X292000Y106000I-30000J0D01*
G01*
X357500Y286000D02*
G03*
X357500Y286000I-30000J0D01*
G01*
X367500Y148000D02*
G03*
X367500Y148000I-30000J0D01*
G01*
X293500Y189500D02*
G03*
X293500Y189500I-30000J0D01*
G01*
X89784Y91921D02*
X124626D01*
Y57079D02*
Y91921D01*
X89784Y57079D02*
X124626D01*
X89784D02*
Y91921D01*
Y74500D02*
X107205Y91921D01*
X25807Y74500D02*
X89784D01*
X124626D02*
X188602D01*
X90374Y146579D02*
X125216D01*
X90374D02*
Y181421D01*
X125216D01*
Y146579D02*
Y181421D01*
X107795Y146579D02*
X125216Y164000D01*
X189193D01*
X26398D02*
X90374D01*
X90784Y134421D02*
X125626D01*
Y99579D02*
Y134421D01*
X90784Y99579D02*
X125626D01*
X90784D02*
Y134421D01*
Y117000D02*
X108205Y134421D01*
X26807Y117000D02*
X90784D01*
X125626D02*
X189602D01*
X94874Y213579D02*
X129717D01*
X94874D02*
Y248421D01*
X129717D01*
Y213579D02*
Y248421D01*
X112295Y213579D02*
X129717Y231000D01*
X193693D01*
X30898D02*
X94874D01*
X95784Y288921D02*
X130626D01*
Y254079D02*
Y288921D01*
X95784Y254079D02*
X130626D01*
X95784D02*
Y288921D01*
Y271500D02*
X113205Y288921D01*
X31807Y271500D02*
X95784D01*
X130626D02*
X194602D01*
X214000Y33500D02*
Y34400D01*
Y12600D02*
Y13500D01*
Y33500D02*
X217000D01*
Y13500D02*
Y33500D01*
X211000Y13500D02*
X217000D01*
X211000D02*
Y33500D01*
X214000D01*
X95784Y331421D02*
X130626D01*
Y296579D02*
Y331421D01*
X95784Y296579D02*
X130626D01*
X95784D02*
Y331421D01*
Y314000D02*
X113205Y331421D01*
X31807Y314000D02*
X95784D01*
X130626D02*
X194602D01*
X248012Y264067D02*
Y284933D01*
X236988Y264067D02*
Y284933D01*
Y264067D02*
X248012D01*
X255988Y265067D02*
Y285933D01*
X267012Y265067D02*
Y285933D01*
X255988D02*
X267012D01*
X227512Y263567D02*
Y284433D01*
X216488Y263567D02*
Y284433D01*
Y263567D02*
X227512D01*
X274488Y265567D02*
Y286433D01*
X285512Y265567D02*
Y286433D01*
X274488D02*
X285512D01*
X95784Y336079D02*
X130626D01*
X95784D02*
Y370921D01*
X130626D01*
Y336079D02*
Y370921D01*
X113205Y336079D02*
X130626Y353500D01*
X194602D01*
X31807D02*
X95784D01*
X90784Y13079D02*
X125626D01*
X90784D02*
Y47921D01*
X125626D01*
Y13079D02*
Y47921D01*
X108205Y13079D02*
X125626Y30500D01*
X189602D01*
X26807D02*
X90784D01*
D27*
X302099Y330498D02*
X301099Y331498D01*
X299100D01*
X298100Y330498D01*
Y326500D01*
X299100Y325500D01*
X301099D01*
X302099Y326500D01*
X304098Y325500D02*
X306097D01*
X305098D01*
Y331498D01*
X304098Y330498D01*
X236649Y144348D02*
X235649Y145348D01*
X233650D01*
X232650Y144348D01*
Y140350D01*
X233650Y139350D01*
X235649D01*
X236649Y140350D01*
X242647Y139350D02*
X238648D01*
X242647Y143349D01*
Y144348D01*
X241647Y145348D01*
X239648D01*
X238648Y144348D01*
X312099Y186398D02*
X311099Y187398D01*
X309100D01*
X308100Y186398D01*
Y182400D01*
X309100Y181400D01*
X311099D01*
X312099Y182400D01*
X314098Y186398D02*
X315098Y187398D01*
X317097D01*
X318097Y186398D01*
Y185399D01*
X317097Y184399D01*
X316097D01*
X317097D01*
X318097Y183399D01*
Y182400D01*
X317097Y181400D01*
X315098D01*
X314098Y182400D01*
X25909Y370498D02*
Y364500D01*
X28909D01*
X29908Y365500D01*
Y369498D01*
X28909Y370498D01*
X25909D01*
X31907Y364500D02*
X33907D01*
X32907D01*
Y370498D01*
X31907Y369498D01*
X21509Y341898D02*
Y335900D01*
X24509D01*
X25508Y336900D01*
Y340898D01*
X24509Y341898D01*
X21509D01*
X31506Y335900D02*
X27507D01*
X31506Y339899D01*
Y340898D01*
X30507Y341898D01*
X28507D01*
X27507Y340898D01*
X20600Y258898D02*
Y252900D01*
X23599D01*
X24599Y253900D01*
Y257898D01*
X23599Y258898D01*
X20600D01*
X26598Y257898D02*
X27598Y258898D01*
X29597D01*
X30597Y257898D01*
Y256899D01*
X29597Y255899D01*
X28597D01*
X29597D01*
X30597Y254899D01*
Y253900D01*
X29597Y252900D01*
X27598D01*
X26598Y253900D01*
X21500Y299398D02*
Y293400D01*
X24499D01*
X25499Y294400D01*
Y298398D01*
X24499Y299398D01*
X21500D01*
X30497Y293400D02*
Y299398D01*
X27498Y296399D01*
X31497D01*
X16100Y191898D02*
Y185900D01*
X19099D01*
X20099Y186900D01*
Y190898D01*
X19099Y191898D01*
X16100D01*
X26097D02*
X22098D01*
Y188899D01*
X24097Y189899D01*
X25097D01*
X26097Y188899D01*
Y186900D01*
X25097Y185900D01*
X23098D01*
X22098Y186900D01*
X16500Y144898D02*
Y138900D01*
X19499D01*
X20499Y139900D01*
Y143898D01*
X19499Y144898D01*
X16500D01*
X26497D02*
X24497Y143898D01*
X22498Y141899D01*
Y139900D01*
X23498Y138900D01*
X25497D01*
X26497Y139900D01*
Y140899D01*
X25497Y141899D01*
X22498D01*
X15509Y102398D02*
Y96400D01*
X18508D01*
X19508Y97400D01*
Y101398D01*
X18508Y102398D01*
X15509D01*
X21508Y101398D02*
X22507Y102398D01*
X24507D01*
X25506Y101398D01*
Y100399D01*
X24507Y99399D01*
X25506Y98399D01*
Y97400D01*
X24507Y96400D01*
X22507D01*
X21508Y97400D01*
Y98399D01*
X22507Y99399D01*
X21508Y100399D01*
Y101398D01*
X22507Y99399D02*
X24507D01*
X217050Y307948D02*
Y301950D01*
X220049D01*
X221049Y302950D01*
Y306948D01*
X220049Y307948D01*
X217050D01*
X223048Y302950D02*
X224048Y301950D01*
X226047D01*
X227047Y302950D01*
Y306948D01*
X226047Y307948D01*
X224048D01*
X223048Y306948D01*
Y305949D01*
X224048Y304949D01*
X227047D01*
X275100Y309898D02*
Y303900D01*
X278099D01*
X279099Y304900D01*
Y308898D01*
X278099Y309898D01*
X275100D01*
X281098Y303900D02*
X283097D01*
X282098D01*
Y309898D01*
X281098Y308898D01*
X286096D02*
X287096Y309898D01*
X289095D01*
X290095Y308898D01*
Y304900D01*
X289095Y303900D01*
X287096D01*
X286096Y304900D01*
Y308898D01*
X237550Y308448D02*
Y302450D01*
X240549D01*
X241549Y303450D01*
Y307448D01*
X240549Y308448D01*
X237550D01*
X243548Y302450D02*
X245547D01*
X244548D01*
Y308448D01*
X243548Y307448D01*
X248546Y302450D02*
X250546D01*
X249546D01*
Y308448D01*
X248546Y307448D01*
X256600Y309398D02*
Y303400D01*
X259599D01*
X260599Y304400D01*
Y308398D01*
X259599Y309398D01*
X256600D01*
X262598Y303400D02*
X264597D01*
X263598D01*
Y309398D01*
X262598Y308398D01*
X271595Y303400D02*
X267596D01*
X271595Y307399D01*
Y308398D01*
X270596Y309398D01*
X268596D01*
X267596Y308398D01*
X229050Y51648D02*
Y45650D01*
X232049D01*
X233049Y46650D01*
Y50648D01*
X232049Y51648D01*
X229050D01*
X235048Y45650D02*
X237047D01*
X236048D01*
Y51648D01*
X235048Y50648D01*
X240046D02*
X241046Y51648D01*
X243045D01*
X244045Y50648D01*
Y49649D01*
X243045Y48649D01*
X242046D01*
X243045D01*
X244045Y47649D01*
Y46650D01*
X243045Y45650D01*
X241046D01*
X240046Y46650D01*
X267499Y345498D02*
X265499D01*
X266499D01*
Y340500D01*
X265499Y339500D01*
X264500D01*
X263500Y340500D01*
X269498Y339500D02*
X271497D01*
X270498D01*
Y345498D01*
X269498Y344498D01*
X253799Y61298D02*
X251799D01*
X252799D01*
Y56300D01*
X251799Y55300D01*
X250800D01*
X249800Y56300D01*
X259797Y55300D02*
X255798D01*
X259797Y59299D01*
Y60298D01*
X258797Y61298D01*
X256798D01*
X255798Y60298D01*
X212999Y350498D02*
X210999D01*
X211999D01*
Y345500D01*
X210999Y344500D01*
X210000D01*
X209000Y345500D01*
X214998Y349498D02*
X215998Y350498D01*
X217997D01*
X218997Y349498D01*
Y348499D01*
X217997Y347499D01*
X216997D01*
X217997D01*
X218997Y346499D01*
Y345500D01*
X217997Y344500D01*
X215998D01*
X214998Y345500D01*
X211650Y44650D02*
Y50648D01*
X214649D01*
X215649Y49648D01*
Y47649D01*
X214649Y46649D01*
X211650D01*
X213649D02*
X215649Y44650D01*
X217648D02*
X219647D01*
X218648D01*
Y50648D01*
X217648Y49648D01*
X238149Y227848D02*
X237149Y228848D01*
X235150D01*
X234150Y227848D01*
Y223850D01*
X235150Y222850D01*
X237149D01*
X238149Y223850D01*
X243147Y222850D02*
Y228848D01*
X240148Y225849D01*
X244147D01*
X16500Y58398D02*
Y52400D01*
X19499D01*
X20499Y53400D01*
Y57398D01*
X19499Y58398D01*
X16500D01*
X22498D02*
X26497D01*
Y57398D01*
X22498Y53400D01*
Y52400D01*
X54000Y354000D02*
X55999D01*
X55000D01*
Y359998D01*
X54000Y358998D01*
X58998D02*
X59998Y359998D01*
X61997D01*
X62997Y358998D01*
Y355000D01*
X61997Y354000D01*
X59998D01*
X58998Y355000D01*
Y358998D01*
X64996Y354000D02*
Y357999D01*
X66996Y359998D01*
X68995Y357999D01*
Y354000D01*
Y356999D01*
X64996D01*
X70995Y354000D02*
X72994D01*
X71994D01*
Y359998D01*
X70995Y358998D01*
X75993D02*
X76993Y359998D01*
X78992D01*
X79992Y358998D01*
Y355000D01*
X78992Y354000D01*
X76993D01*
X75993Y355000D01*
Y358998D01*
X227999Y209998D02*
X225999Y208998D01*
X224000Y206999D01*
Y205000D01*
X225000Y204000D01*
X226999D01*
X227999Y205000D01*
Y205999D01*
X226999Y206999D01*
X224000D01*
X229998Y208998D02*
X230998Y209998D01*
X232997D01*
X233997Y208998D01*
Y207999D01*
X232997Y206999D01*
X233997Y205999D01*
Y205000D01*
X232997Y204000D01*
X230998D01*
X229998Y205000D01*
Y205999D01*
X230998Y206999D01*
X229998Y207999D01*
Y208998D01*
X230998Y206999D02*
X232997D01*
X235996Y208998D02*
X236996Y209998D01*
X238995D01*
X239995Y208998D01*
Y205000D01*
X238995Y204000D01*
X236996D01*
X235996Y205000D01*
Y208998D01*
X241994D02*
X242994Y209998D01*
X244993D01*
X245993Y208998D01*
Y205000D01*
X244993Y204000D01*
X242994D01*
X241994Y205000D01*
Y208998D01*
X247992Y207999D02*
Y205000D01*
X248992Y204000D01*
X251991D01*
Y207999D01*
X257989Y209998D02*
X253990D01*
Y206999D01*
X255990D01*
X253990D01*
Y204000D01*
X216499Y94498D02*
X214499Y93498D01*
X212500Y91499D01*
Y89500D01*
X213500Y88500D01*
X215499D01*
X216499Y89500D01*
Y90499D01*
X215499Y91499D01*
X212500D01*
X218498Y93498D02*
X219498Y94498D01*
X221497D01*
X222497Y93498D01*
Y92499D01*
X221497Y91499D01*
X222497Y90499D01*
Y89500D01*
X221497Y88500D01*
X219498D01*
X218498Y89500D01*
Y90499D01*
X219498Y91499D01*
X218498Y92499D01*
Y93498D01*
X219498Y91499D02*
X221497D01*
X224496Y93498D02*
X225496Y94498D01*
X227495D01*
X228495Y93498D01*
Y89500D01*
X227495Y88500D01*
X225496D01*
X224496Y89500D01*
Y93498D01*
X230494D02*
X231494Y94498D01*
X233493D01*
X234493Y93498D01*
Y89500D01*
X233493Y88500D01*
X231494D01*
X230494Y89500D01*
Y93498D01*
X236492Y92499D02*
Y89500D01*
X237492Y88500D01*
X240491D01*
Y92499D01*
X246489Y94498D02*
X242490D01*
Y91499D01*
X244490D01*
X242490D01*
Y88500D01*
X342499Y148498D02*
X340499Y147498D01*
X338500Y145499D01*
Y143500D01*
X339500Y142500D01*
X341499D01*
X342499Y143500D01*
Y144499D01*
X341499Y145499D01*
X338500D01*
X344498Y147498D02*
X345498Y148498D01*
X347497D01*
X348497Y147498D01*
Y146499D01*
X347497Y145499D01*
X348497Y144499D01*
Y143500D01*
X347497Y142500D01*
X345498D01*
X344498Y143500D01*
Y144499D01*
X345498Y145499D01*
X344498Y146499D01*
Y147498D01*
X345498Y145499D02*
X347497D01*
X350496Y147498D02*
X351496Y148498D01*
X353495D01*
X354495Y147498D01*
Y143500D01*
X353495Y142500D01*
X351496D01*
X350496Y143500D01*
Y147498D01*
X356494D02*
X357494Y148498D01*
X359493D01*
X360493Y147498D01*
Y143500D01*
X359493Y142500D01*
X357494D01*
X356494Y143500D01*
Y147498D01*
X362492Y146499D02*
Y143500D01*
X363492Y142500D01*
X366491D01*
Y146499D01*
X372489Y148498D02*
X368490D01*
Y145499D01*
X370490D01*
X368490D01*
Y142500D01*
X191000Y19998D02*
X192000Y20998D01*
X193999D01*
X194999Y19998D01*
Y18999D01*
X193999Y17999D01*
X192999D01*
X193999D01*
X194999Y16999D01*
Y16000D01*
X193999Y15000D01*
X192000D01*
X191000Y16000D01*
X196998Y19998D02*
X197998Y20998D01*
X199997D01*
X200997Y19998D01*
Y18999D01*
X199997Y17999D01*
X198997D01*
X199997D01*
X200997Y16999D01*
Y16000D01*
X199997Y15000D01*
X197998D01*
X196998Y16000D01*
X202996Y19998D02*
X203996Y20998D01*
X205995D01*
X206995Y19998D01*
Y16000D01*
X205995Y15000D01*
X203996D01*
X202996Y16000D01*
Y19998D01*
X209994Y15000D02*
X211993D01*
X212993Y16000D01*
Y17999D01*
X211993Y18999D01*
X209994D01*
X208994Y17999D01*
Y16000D01*
X209994Y15000D01*
X214992Y20998D02*
Y15000D01*
Y17999D01*
X215992Y18999D01*
X217991D01*
X218991Y17999D01*
Y15000D01*
X220990D02*
Y18999D01*
X221990D01*
X222990Y17999D01*
Y15000D01*
Y17999D01*
X223989Y18999D01*
X224989Y17999D01*
Y15000D01*
X290999Y34998D02*
X289000D01*
X288000Y33998D01*
Y30000D01*
X289000Y29000D01*
X290999D01*
X291999Y30000D01*
Y33998D01*
X290999Y34998D01*
X293998D02*
Y30000D01*
X294998Y29000D01*
X296997D01*
X297997Y30000D01*
Y34998D01*
X299996D02*
X303995D01*
X301995D01*
Y29000D01*
X324500Y272000D02*
X326499D01*
X325500D01*
Y277998D01*
X324500Y276998D01*
X329498D02*
X330498Y277998D01*
X332497D01*
X333497Y276998D01*
Y273000D01*
X332497Y272000D01*
X330498D01*
X329498Y273000D01*
Y276998D01*
X335496D02*
X336496Y277998D01*
X338495D01*
X339495Y276998D01*
Y273000D01*
X338495Y272000D01*
X336496D01*
X335496Y273000D01*
Y276998D01*
X341494D02*
X342494Y277998D01*
X344494D01*
X345493Y276998D01*
Y273000D01*
X344494Y272000D01*
X342494D01*
X341494Y273000D01*
Y276998D01*
X347493Y275999D02*
Y273000D01*
X348492Y272000D01*
X351491D01*
Y275999D01*
X357489Y277998D02*
X353491D01*
Y274999D01*
X355490D01*
X353491D01*
Y272000D01*
X312499Y359998D02*
X308500D01*
Y356999D01*
X310499D01*
X308500D01*
Y354000D01*
X314498D02*
Y357999D01*
X316497Y359998D01*
X318497Y357999D01*
Y354000D01*
Y356999D01*
X314498D01*
X320496Y354000D02*
Y359998D01*
X324495Y354000D01*
Y359998D01*
X234000Y376998D02*
X235999D01*
X235000D01*
Y371000D01*
X234000D01*
X235999D01*
X238998D02*
Y376998D01*
X242997Y371000D01*
Y376998D01*
X217500Y271000D02*
X219499D01*
X218500D01*
Y276998D01*
X217500Y275998D01*
X222498Y271000D02*
Y276998D01*
X226497Y271000D01*
Y276998D01*
X231495Y271000D02*
Y276998D01*
X228496Y273999D01*
X232495D01*
X234494Y275998D02*
X235494Y276998D01*
X237493D01*
X238493Y275998D01*
Y272000D01*
X237493Y271000D01*
X235494D01*
X234494Y272000D01*
Y275998D01*
X240493D02*
X241492Y276998D01*
X243492D01*
X244491Y275998D01*
Y272000D01*
X243492Y271000D01*
X241492D01*
X240493Y272000D01*
Y275998D01*
X249490Y271000D02*
Y276998D01*
X246491Y273999D01*
X250489D01*
X58500Y152000D02*
X60499D01*
X59500D01*
Y157998D01*
X58500Y156998D01*
X63498D02*
X64498Y157998D01*
X66497D01*
X67497Y156998D01*
Y153000D01*
X66497Y152000D01*
X64498D01*
X63498Y153000D01*
Y156998D01*
X69496Y152000D02*
Y155999D01*
X71496Y157998D01*
X73495Y155999D01*
Y152000D01*
Y154999D01*
X69496D01*
X75494Y152000D02*
X77494D01*
X76494D01*
Y157998D01*
X75494Y156998D01*
X80493D02*
X81493Y157998D01*
X83492D01*
X84492Y156998D01*
Y153000D01*
X83492Y152000D01*
X81493D01*
X80493Y153000D01*
Y156998D01*
X55000Y105000D02*
X56999D01*
X56000D01*
Y110998D01*
X55000Y109998D01*
X59998D02*
X60998Y110998D01*
X62997D01*
X63997Y109998D01*
Y106000D01*
X62997Y105000D01*
X60998D01*
X59998Y106000D01*
Y109998D01*
X65996Y105000D02*
Y108999D01*
X67996Y110998D01*
X69995Y108999D01*
Y105000D01*
Y107999D01*
X65996D01*
X71995Y105000D02*
X73994D01*
X72994D01*
Y110998D01*
X71995Y109998D01*
X76993D02*
X77993Y110998D01*
X79992D01*
X80992Y109998D01*
Y106000D01*
X79992Y105000D01*
X77993D01*
X76993Y106000D01*
Y109998D01*
X59500Y61000D02*
X61499D01*
X60500D01*
Y66998D01*
X59500Y65998D01*
X64498D02*
X65498Y66998D01*
X67497D01*
X68497Y65998D01*
Y62000D01*
X67497Y61000D01*
X65498D01*
X64498Y62000D01*
Y65998D01*
X70496Y61000D02*
Y64999D01*
X72496Y66998D01*
X74495Y64999D01*
Y61000D01*
Y63999D01*
X70496D01*
X76494Y61000D02*
X78494D01*
X77494D01*
Y66998D01*
X76494Y65998D01*
X81493D02*
X82493Y66998D01*
X84492D01*
X85492Y65998D01*
Y62000D01*
X84492Y61000D01*
X82493D01*
X81493Y62000D01*
Y65998D01*
X64000Y17500D02*
X65999D01*
X65000D01*
Y23498D01*
X64000Y22498D01*
X68998D02*
X69998Y23498D01*
X71997D01*
X72997Y22498D01*
Y18500D01*
X71997Y17500D01*
X69998D01*
X68998Y18500D01*
Y22498D01*
X74996Y17500D02*
Y21499D01*
X76996Y23498D01*
X78995Y21499D01*
Y17500D01*
Y20499D01*
X74996D01*
X80994Y17500D02*
X82994D01*
X81994D01*
Y23498D01*
X80994Y22498D01*
X85993D02*
X86993Y23498D01*
X88992D01*
X89992Y22498D01*
Y18500D01*
X88992Y17500D01*
X86993D01*
X85993Y18500D01*
Y22498D01*
X60000Y219000D02*
X61999D01*
X61000D01*
Y224998D01*
X60000Y223998D01*
X64998D02*
X65998Y224998D01*
X67997D01*
X68997Y223998D01*
Y220000D01*
X67997Y219000D01*
X65998D01*
X64998Y220000D01*
Y223998D01*
X70996Y219000D02*
Y222999D01*
X72996Y224998D01*
X74995Y222999D01*
Y219000D01*
Y221999D01*
X70996D01*
X76995Y219000D02*
X78994D01*
X77994D01*
Y224998D01*
X76995Y223998D01*
X81993D02*
X82993Y224998D01*
X84992D01*
X85992Y223998D01*
Y220000D01*
X84992Y219000D01*
X82993D01*
X81993Y220000D01*
Y223998D01*
X61500Y263000D02*
X63499D01*
X62500D01*
Y268998D01*
X61500Y267998D01*
X66498D02*
X67498Y268998D01*
X69497D01*
X70497Y267998D01*
Y264000D01*
X69497Y263000D01*
X67498D01*
X66498Y264000D01*
Y267998D01*
X72496Y263000D02*
Y266999D01*
X74496Y268998D01*
X76495Y266999D01*
Y263000D01*
Y265999D01*
X72496D01*
X78495Y263000D02*
X80494D01*
X79494D01*
Y268998D01*
X78495Y267998D01*
X83493D02*
X84493Y268998D01*
X86492D01*
X87492Y267998D01*
Y264000D01*
X86492Y263000D01*
X84493D01*
X83493Y264000D01*
Y267998D01*
X51000Y305500D02*
X52999D01*
X52000D01*
Y311498D01*
X51000Y310498D01*
X55998D02*
X56998Y311498D01*
X58997D01*
X59997Y310498D01*
Y306500D01*
X58997Y305500D01*
X56998D01*
X55998Y306500D01*
Y310498D01*
X61996Y305500D02*
Y309499D01*
X63996Y311498D01*
X65995Y309499D01*
Y305500D01*
Y308499D01*
X61996D01*
X67994Y305500D02*
X69994D01*
X68994D01*
Y311498D01*
X67994Y310498D01*
X72993D02*
X73993Y311498D01*
X75992D01*
X76992Y310498D01*
Y306500D01*
X75992Y305500D01*
X73993D01*
X72993Y306500D01*
Y310498D01*
D28*
X294015Y106051D02*
X297951D01*
X295983Y108019D02*
Y104083D01*
X327449Y318015D02*
Y321951D01*
X325481Y319983D02*
X329417D01*
X337551Y115985D02*
Y112049D01*
X339519Y114017D02*
X335583D01*
X295515Y189551D02*
X299451D01*
X297483Y191519D02*
Y187583D01*
D29*
X242504Y283752D02*
D03*
X261499Y266250D02*
D03*
X222003Y283252D02*
D03*
X279999Y266751D02*
D03*
M02*
