G04 Layer_Physical_Order=2*
G04 Layer_Color=16711680*
%FSLAX25Y25*%
%MOIN*%
G70*
G01*
G75*
%ADD10C,0.04500*%
%ADD11C,0.06000*%
%ADD12C,0.07874*%
%ADD13R,0.08858X0.08858*%
%ADD14C,0.08858*%
%ADD15C,0.07677*%
%ADD16R,0.07677X0.07677*%
%ADD17C,0.06299*%
%ADD18C,0.05512*%
%ADD19C,0.10000*%
%ADD20R,0.10000X0.10000*%
%ADD21R,0.07874X0.07874*%
%ADD22R,0.10000X0.10000*%
%ADD23R,0.07677X0.07677*%
D10*
X201000Y232500D02*
Y288500D01*
X200000Y361500D02*
X240500D01*
X9000Y152409D02*
X20591Y164000D01*
X9000Y42500D02*
Y152409D01*
Y42500D02*
X21000Y30500D01*
X12000Y244091D02*
Y349000D01*
X21000Y75500D02*
Y117000D01*
X20000Y74500D02*
X21000Y75500D01*
X195000Y117409D02*
X195409Y117000D01*
X195000Y117409D02*
Y164000D01*
X194409Y31500D02*
Y74500D01*
Y31500D02*
X195409Y30500D01*
X243500Y296091D02*
X261500D01*
X242500Y295091D02*
X243500Y296091D01*
X261500Y254909D02*
X279500D01*
X280000Y255410D01*
X222000Y253410D02*
X242000D01*
X242500Y253909D01*
X222000Y294590D02*
X236090Y280500D01*
X264000D01*
X280000Y296500D01*
Y296590D01*
X240500Y361500D02*
X246500Y355500D01*
Y352000D02*
Y355500D01*
X226815Y352000D02*
X238500Y340315D01*
Y299091D02*
Y340315D01*
Y299091D02*
X242500Y295091D01*
X276815Y351685D02*
Y353000D01*
X201000Y288500D02*
X226815Y314315D01*
Y352000D01*
X41500Y137500D02*
Y263090D01*
X21000Y117000D02*
X41500Y137500D01*
X214000Y38500D02*
X232000Y20500D01*
Y15000D02*
Y20500D01*
X242000Y15000D02*
X269342D01*
X276000Y21657D01*
X179500Y89410D02*
Y215000D01*
Y89410D02*
X194409Y74500D01*
X242000Y14535D02*
Y15000D01*
X227500Y42500D02*
X242000Y28000D01*
Y15000D02*
Y28000D01*
X183500Y215000D02*
X199500Y231000D01*
X179500Y215000D02*
X183500D01*
X199500Y231000D02*
X201000Y232500D01*
X12000Y244091D02*
X25091Y231000D01*
Y168500D02*
Y231000D01*
X20591Y164000D02*
X25091Y168500D01*
X248500Y107500D02*
Y189500D01*
X247000Y106000D02*
X248500Y107500D01*
X247000Y86000D02*
Y106000D01*
X227500Y66500D02*
X247000Y86000D01*
X227500Y42500D02*
Y66500D01*
X278500Y107500D02*
Y189500D01*
X248500D02*
X261000Y202000D01*
X303000D01*
X277000Y106000D02*
X278500Y107500D01*
X276000Y41342D02*
Y105000D01*
X277000Y106000D01*
X20000Y74500D02*
X123000D01*
X189000Y8500D02*
X214000D01*
X26000Y271500D02*
X33091D01*
X41500Y263090D01*
X16500Y353500D02*
X26000D01*
X12000Y349000D02*
X16500Y353500D01*
X200000Y353909D02*
Y361500D01*
Y353909D02*
X200409Y353500D01*
Y314000D02*
Y353500D01*
X26000Y271500D02*
Y314000D01*
X337500Y163000D02*
Y167500D01*
X303000Y202000D02*
X337500Y167500D01*
X304000Y133000D02*
X337500D01*
X278500Y107500D02*
X304000Y133000D01*
X280000Y255410D02*
X284910D01*
X300500Y271000D01*
X327500D01*
X296500Y302000D02*
X327500Y271000D01*
X296500Y302000D02*
Y353000D01*
X123000Y74500D02*
X189000Y8500D01*
D11*
X200409Y353500D02*
D03*
Y314000D02*
D03*
Y271500D02*
D03*
X199500Y231000D02*
D03*
X195000Y164000D02*
D03*
X195409Y117000D02*
D03*
X194409Y74500D02*
D03*
X195409Y30500D02*
D03*
X21000D02*
D03*
X20000Y74500D02*
D03*
X21000Y117000D02*
D03*
X20591Y164000D02*
D03*
X25091Y231000D02*
D03*
X26000Y271500D02*
D03*
X10500Y364500D02*
D03*
X16000Y15500D02*
D03*
X342000Y30000D02*
D03*
X354000Y364000D02*
D03*
D12*
X26000Y314000D02*
D03*
Y353500D02*
D03*
X242500Y253909D02*
D03*
X261500Y296091D02*
D03*
X222000Y253410D02*
D03*
X280000Y296590D02*
D03*
D13*
X20000Y74500D02*
D03*
X195000Y164000D02*
D03*
X21000Y117000D02*
D03*
X199500Y231000D02*
D03*
X26000Y271500D02*
D03*
Y314000D02*
D03*
X200409Y353500D02*
D03*
X195409Y30500D02*
D03*
D14*
X194409Y74500D02*
D03*
X20591Y164000D02*
D03*
X195409Y117000D02*
D03*
X25091Y231000D02*
D03*
X200409Y271500D02*
D03*
Y314000D02*
D03*
X26000Y353500D02*
D03*
X21000Y30500D02*
D03*
D15*
X276000Y41342D02*
D03*
X246500Y352000D02*
D03*
X296500Y353000D02*
D03*
D16*
X276000Y21657D02*
D03*
D17*
X242000Y15000D02*
D03*
X232000D02*
D03*
D18*
X214000Y8500D02*
D03*
Y38500D02*
D03*
D19*
X247000Y106000D02*
D03*
X327500Y271000D02*
D03*
X337500Y163000D02*
D03*
X248500Y189500D02*
D03*
D20*
X277000Y106000D02*
D03*
X278500Y189500D02*
D03*
D21*
X242500Y295091D02*
D03*
X261500Y254909D02*
D03*
X222000Y294590D02*
D03*
X280000Y255410D02*
D03*
D22*
X327500Y301000D02*
D03*
X337500Y133000D02*
D03*
D23*
X226815Y352000D02*
D03*
X276815Y353000D02*
D03*
M02*
