G04 Layer_Color=8388736*
%FSLAX25Y25*%
%MOIN*%
G70*
G01*
G75*
%ADD30C,0.06800*%
%ADD31C,0.08674*%
%ADD32R,0.09658X0.09658*%
%ADD33C,0.09658*%
%ADD34C,0.08477*%
%ADD35R,0.08477X0.08477*%
%ADD36C,0.07099*%
%ADD37C,0.06312*%
%ADD38C,0.10800*%
%ADD39R,0.10800X0.10800*%
%ADD40R,0.08674X0.08674*%
%ADD41R,0.10800X0.10800*%
%ADD42R,0.08477X0.08477*%
D30*
X200409Y353500D02*
D03*
Y314000D02*
D03*
Y271500D02*
D03*
X199500Y231000D02*
D03*
X195000Y164000D02*
D03*
X195409Y117000D02*
D03*
X194409Y74500D02*
D03*
X195409Y30500D02*
D03*
X21000D02*
D03*
X20000Y74500D02*
D03*
X21000Y117000D02*
D03*
X20591Y164000D02*
D03*
X25091Y231000D02*
D03*
X26000Y271500D02*
D03*
X10500Y364500D02*
D03*
X16000Y15500D02*
D03*
X342000Y30000D02*
D03*
X354000Y364000D02*
D03*
D31*
X26000Y314000D02*
D03*
Y353500D02*
D03*
X242500Y253909D02*
D03*
X261500Y296091D02*
D03*
X222000Y253410D02*
D03*
X280000Y296590D02*
D03*
D32*
X20000Y74500D02*
D03*
X195000Y164000D02*
D03*
X21000Y117000D02*
D03*
X199500Y231000D02*
D03*
X26000Y271500D02*
D03*
Y314000D02*
D03*
X200409Y353500D02*
D03*
X195409Y30500D02*
D03*
D33*
X194409Y74500D02*
D03*
X20591Y164000D02*
D03*
X195409Y117000D02*
D03*
X25091Y231000D02*
D03*
X200409Y271500D02*
D03*
Y314000D02*
D03*
X26000Y353500D02*
D03*
X21000Y30500D02*
D03*
D34*
X276000Y41342D02*
D03*
X246500Y352000D02*
D03*
X296500Y353000D02*
D03*
D35*
X276000Y21657D02*
D03*
D36*
X242000Y15000D02*
D03*
X232000D02*
D03*
D37*
X214000Y8500D02*
D03*
Y38500D02*
D03*
D38*
X247000Y106000D02*
D03*
X327500Y271000D02*
D03*
X337500Y163000D02*
D03*
X248500Y189500D02*
D03*
D39*
X277000Y106000D02*
D03*
X278500Y189500D02*
D03*
D40*
X242500Y295091D02*
D03*
X261500Y254909D02*
D03*
X222000Y294590D02*
D03*
X280000Y255410D02*
D03*
D41*
X327500Y301000D02*
D03*
X337500Y133000D02*
D03*
D42*
X226815Y352000D02*
D03*
X276815Y353000D02*
D03*
M02*
