M48
;Layer_Color=9474304
;FILE_FORMAT=2:5
INCH,LZ
;TYPE=PLATED
T1F00S00C0.03000
T2F00S00C0.03150
T3F00S00C0.03346
T4F00S00C0.04724
T5F00S00C0.05118
T6F00S00C0.05906
T7F00S00C0.06000
T8F00S00C0.11811
%
T01
X0021Y00305
X0194409Y00745
X0195409Y0117
X0021
X002Y00745
X0026Y02715
X0200409
X01995Y0231
X0200409Y0314
Y03535
T02
X0232Y0015
X0242
T03
X0214Y00085
Y00385
T04
X0222Y025341
X02425Y0253909
X02615Y0254909
X028Y025541
Y029659
X02615Y0296091
X02425Y0295091
X0222Y029459
T05
X0276Y0021657
Y0041342
X0276815Y0353
X02965
X02465Y0352
X0226815
T06
X0021Y00305
X0195409
X0194409Y00745
X0195409Y0117
X0195Y0164
X0020591
X0021Y0117
X002Y00745
X0025091Y0231
X0026Y02715
Y0314
Y03535
X0200409
Y0314
Y02715
X01995Y0231
T07
X0247Y0106
X0277
X02785Y01895
X02485
X03375Y0163
Y0133
X03275Y0271
Y0301
T08
X0016Y00155
X0342Y003
X0354Y0364
X00105Y03645
M30
