G04 Layer_Physical_Order=1*
G04 Layer_Color=255*
%FSLAX25Y25*%
%MOIN*%
G70*
G01*
G75*
%ADD10C,0.04500*%
%ADD11C,0.06000*%
%ADD12C,0.07874*%
%ADD13R,0.08858X0.08858*%
%ADD14C,0.08858*%
%ADD15C,0.07677*%
%ADD16R,0.07677X0.07677*%
%ADD17C,0.06299*%
%ADD18C,0.05512*%
%ADD19C,0.10000*%
%ADD20R,0.10000X0.10000*%
%ADD21R,0.07874X0.07874*%
%ADD22R,0.10000X0.10000*%
%ADD23R,0.07677X0.07677*%
D10*
X175591Y294590D02*
X222000D01*
X162000Y281000D02*
X175591Y294590D01*
X162000Y197000D02*
Y281000D01*
Y197000D02*
X195000Y164000D01*
X214000Y8500D02*
X246843Y41342D01*
X276000D01*
X21000Y30500D02*
X171500D01*
X247000Y106000D01*
X200409Y314000D02*
X202591D01*
X222000Y294590D01*
X242500Y253909D02*
X274091Y285500D01*
X312000D01*
X327500Y301000D01*
X276815Y353000D02*
X327500Y302315D01*
Y301000D02*
Y302315D01*
D11*
X200409Y353500D02*
D03*
Y314000D02*
D03*
Y271500D02*
D03*
X199500Y231000D02*
D03*
X195000Y164000D02*
D03*
X195409Y117000D02*
D03*
X194409Y74500D02*
D03*
X195409Y30500D02*
D03*
X21000D02*
D03*
X20000Y74500D02*
D03*
X21000Y117000D02*
D03*
X20591Y164000D02*
D03*
X25091Y231000D02*
D03*
X26000Y271500D02*
D03*
X10500Y364500D02*
D03*
X16000Y15500D02*
D03*
X342000Y30000D02*
D03*
X354000Y364000D02*
D03*
D12*
X26000Y314000D02*
D03*
Y353500D02*
D03*
X242500Y253909D02*
D03*
X261500Y296091D02*
D03*
X222000Y253410D02*
D03*
X280000Y296590D02*
D03*
D13*
X20000Y74500D02*
D03*
X195000Y164000D02*
D03*
X21000Y117000D02*
D03*
X199500Y231000D02*
D03*
X26000Y271500D02*
D03*
Y314000D02*
D03*
X200409Y353500D02*
D03*
X195409Y30500D02*
D03*
D14*
X194409Y74500D02*
D03*
X20591Y164000D02*
D03*
X195409Y117000D02*
D03*
X25091Y231000D02*
D03*
X200409Y271500D02*
D03*
Y314000D02*
D03*
X26000Y353500D02*
D03*
X21000Y30500D02*
D03*
D15*
X276000Y41342D02*
D03*
X246500Y352000D02*
D03*
X296500Y353000D02*
D03*
D16*
X276000Y21657D02*
D03*
D17*
X242000Y15000D02*
D03*
X232000D02*
D03*
D18*
X214000Y8500D02*
D03*
Y38500D02*
D03*
D19*
X247000Y106000D02*
D03*
X327500Y271000D02*
D03*
X337500Y163000D02*
D03*
X248500Y189500D02*
D03*
D20*
X277000Y106000D02*
D03*
X278500Y189500D02*
D03*
D21*
X242500Y295091D02*
D03*
X261500Y254909D02*
D03*
X222000Y294590D02*
D03*
X280000Y255410D02*
D03*
D22*
X327500Y301000D02*
D03*
X337500Y133000D02*
D03*
D23*
X226815Y352000D02*
D03*
X276815Y353000D02*
D03*
M02*
