G04 Layer_Color=16711935*
%FSLAX25Y25*%
%MOIN*%
G70*
G01*
G75*
%ADD44C,0.00394*%
D44*
X89784Y91921D02*
X124626D01*
Y57079D02*
Y91921D01*
X89784Y57079D02*
X124626D01*
X89784D02*
Y91921D01*
Y74500D02*
X107205Y91921D01*
X20000Y74500D02*
X89784D01*
X124626D02*
X194409D01*
X90374Y146579D02*
X125216D01*
X90374D02*
Y181421D01*
X125216D01*
Y146579D02*
Y181421D01*
X107795Y146579D02*
X125216Y164000D01*
X195000D01*
X20591D02*
X90374D01*
X90784Y134421D02*
X125626D01*
Y99579D02*
Y134421D01*
X90784Y99579D02*
X125626D01*
X90784D02*
Y134421D01*
Y117000D02*
X108205Y134421D01*
X21000Y117000D02*
X90784D01*
X125626D02*
X195409D01*
X94874Y213579D02*
X129717D01*
X94874D02*
Y248421D01*
X129717D01*
Y213579D02*
Y248421D01*
X112295Y213579D02*
X129717Y231000D01*
X199500D01*
X25091D02*
X94874D01*
X95784Y288921D02*
X130626D01*
Y254079D02*
Y288921D01*
X95784Y254079D02*
X130626D01*
X95784D02*
Y288921D01*
Y271500D02*
X113205Y288921D01*
X26000Y271500D02*
X95784D01*
X130626D02*
X200409D01*
X95784Y331421D02*
X130626D01*
Y296579D02*
Y331421D01*
X95784Y296579D02*
X130626D01*
X95784D02*
Y331421D01*
Y314000D02*
X113205Y331421D01*
X26000Y314000D02*
X95784D01*
X130626D02*
X200409D01*
X95784Y336079D02*
X130626D01*
X95784D02*
Y370921D01*
X130626D01*
Y336079D02*
Y370921D01*
X113205Y336079D02*
X130626Y353500D01*
X200409D01*
X26000D02*
X95784D01*
X90784Y13079D02*
X125626D01*
X90784D02*
Y47921D01*
X125626D01*
Y13079D02*
Y47921D01*
X108205Y13079D02*
X125626Y30500D01*
X195409D01*
X21000D02*
X90784D01*
M02*
